<svg width="128" height="128" viewBox="0 0 128 128" fill="none" xmlns="http://www.w3.org/2000/svg">
<g clip-path="url(#clip0_136_2922)">
<circle cx="64" cy="64" r="64" fill="#D90B5A"/>
<path d="M102.923 24.7919C101.798 25.8405 99.435 28.1822 98.7919 29.3846C98.1697 30.538 96.2754 43.0297 94.6606 45.6301C94.4649 41.0654 91.473 36.3819 87.9219 33.6417C77.052 25.2393 56.4515 38.1364 61.9179 53.0608C62.9944 56.0107 64.756 58.4992 67.0768 60.5824C65.7719 61.808 64.4647 63.0336 63.1552 64.2593C55.4379 52.5016 39.8425 67.8313 35.9908 75.7304C35.6343 75.8842 30.6642 70.6414 30.5174 70.2849C30.1469 69.3622 40.22 55.5703 41.5901 53.8297C49.9016 43.2184 62.3793 31.1601 75.3254 26.6793C83.2454 23.9391 94.5977 23.9321 103 24.3655L102.923 24.7919Z" fill="white"/>
<path d="M63.1551 64.2663C64.46 63.0406 65.7672 61.815 67.0767 60.5894C78.5059 70.8442 95.1918 58.1567 94.6605 45.6371C96.2753 43.0367 98.1697 30.545 98.7918 29.3916C99.4349 28.1892 101.805 25.8475 102.923 24.7989C102.476 60.5754 81.9451 77.443 52.3621 93.311C50.7403 91.5402 49.1186 89.7716 47.4968 88.0054C54.3264 84.7968 68.7334 72.7805 63.1482 64.2733L63.1551 64.2663Z" fill="#EEEEEE"/>
<path d="M78.9043 80.2811C78.4709 82.1964 76.6744 95.1425 76.2061 95.7786C75.5839 96.6315 65.1893 104.265 63.3858 105.432C62.4631 106.033 51.8448 112.325 51.4044 111.8C52.7885 108.48 53.2778 97.5262 53.7182 96.9041C54.592 95.6738 74.794 85.1883 78.9043 80.2811Z" fill="white"/>
<path d="M60.464 67.9851C55.0954 74.6958 41.1427 86.153 33.9916 90.459C33.4394 90.7875 32.5656 91.5075 31.9365 91.4376C35.6763 82.7487 40.0942 72.9133 47.6787 66.9086C51.8729 63.5882 60.0445 61.1346 60.464 67.9851Z" fill="white"/>
<path d="M40.5485 49.8173C39.3322 50.041 34.1733 51.2153 33.684 51.5019C30.6711 53.2775 19.976 65.3847 16.7534 69.0616C16.2082 69.1315 12.1468 70.271 12 70.0752C14.3557 63.9867 25.3236 48.9645 30.056 46.1124C30.9997 45.5462 43.065 44.4068 45.3229 44.267C45.5326 44.5676 42.8203 46.9792 40.5485 49.8173Z" fill="white"/>
<path d="M16.7534 69.0616C19.9759 65.3847 30.6711 53.2775 33.6839 51.5019C34.1662 51.2153 39.3321 50.041 40.5484 49.8173C38.1927 52.7602 35.2707 56.8216 33.0548 59.9462C32.209 61.1416 27.7142 68.4535 27.2598 68.7191C26.8054 68.9777 18.4939 68.8379 16.7603 69.0616H16.7534Z" fill="#EEEEEE"/>
<path d="M33.9916 90.459C41.1357 86.1529 55.0884 74.7028 60.4639 67.9851C60.9253 75.5696 50.4678 82.4551 44.6308 85.7056C43.5753 86.2928 34.8444 90.5079 34.2922 90.6547C34.1384 90.6967 34.0755 90.5499 33.9916 90.459Z" fill="#EEEEEE"/>
<path d="M94.6606 45.637C95.1918 58.1567 78.5059 70.8511 67.0768 60.5893C64.749 58.4992 62.9944 56.0107 61.9179 53.0678C62.2744 52.5994 63.2111 55.5633 63.9591 56.507C65.8185 55.4025 65.3222 54.7454 65.8255 53.6829C67.4892 56.7796 68.5377 57.6674 71.6624 59.1423C81.379 63.728 92.3957 54.4868 90.4174 44.1551C89.285 38.2483 86.4399 35.5221 80.5401 34.3966C82.5324 34.4665 83.0287 34.5923 84.986 35.3333L88.2155 37.8918C91.3332 34.5993 89.257 36.4727 87.9219 33.6487C91.466 36.3889 94.4648 41.0724 94.6606 45.637Z" fill="#D90B5A"/>
<path d="M87.9219 33.6417C89.2571 36.4658 91.3332 34.5923 88.2155 37.8848L84.986 35.3263C83.0287 34.5784 82.5324 34.4595 80.5402 34.3896C69.097 33.9702 61.0372 44.7633 65.8255 53.6759C65.3222 54.7384 65.8185 55.3955 63.9591 56.5C63.2112 55.5563 62.2745 52.5924 61.9179 53.0608C56.4585 38.1364 77.059 25.2393 87.9219 33.6417Z" fill="#D90B5A"/>
<path d="M59 40.5L57.5 54L64.5 63C68.8333 62.5 79 59.6 85 56C91 52.4 94.5 46.1667 95.5 43V37.5L91 29L79 28.5L67 33L59 40.5Z" fill="white"/>
<path d="M80.5 48.5C74.1 54.9 66.5 61.5 63.5 64L85 66L97 50L100.5 27.5C96.5 31.8333 86.9 42.1 80.5 48.5Z" fill="#EEEEEE"/>
<path d="M79.5 56C84.7467 56 89 51.7467 89 46.5C89 41.2533 84.7467 37 79.5 37C74.2533 37 70 41.2533 70 46.5C70 51.7467 74.2533 56 79.5 56Z" fill="#D90B5A"/>
</g>
<defs>
<clipPath id="clip0_136_2922">
<rect width="128" height="128" fill="white"/>
</clipPath>
</defs>
</svg>
